<?xml version="1.0" encoding="UTF-8"?><svg id="_лой_1" xmlns="http://www.w3.org/2000/svg" viewBox="0 0 269.63 274.37"><path d="M261.57,117.82c-.39,.48-.75,.82-.99,1.23-1.46,2.49-3.92,3.84-6.13,3.34-2.52-.58-4.67-3.04-4.86-5.67-.09-1.16-.01-2.33-.01-3.5,0-25.49,.06-50.99-.04-76.48-.02-5.85-2.76-10.46-8.16-12.95-2.24-1.04-4.77-1.47-7.41-1.47-39.32,.09-78.64,.06-117.97,.06-26.66,0-53.32-.04-79.98,.03-5.88,.02-10.45,2.72-12.98,8.11-.91,1.93-1.53,4.04-1.52,6.39,.08,52.98,.03,105.97,.09,158.96,.01,8.49,6.09,14.46,14.43,14.47,36.32,.08,72.65,.04,108.97,.04,1.17,0,2.35-.11,3.5,.02,2.05,.25,4.66,2.88,5.07,4.95,.41,2.06-.9,4.76-2.95,6.01-.26,.16-.61,.16-.86,.33-.26,.18-.45,.48-.62,.67-38.09,0-76.08,.03-114.07-.03-6.77-.01-12.69-2.38-17.43-7.38-2.09-2.21-4.26-4.2-5.4-7.27-1.4-3.76-2.68-7.36-2.68-10.88,0-47.15,0-94.31,0-141.46,0-6.16,.1-12.33-.02-18.49-.22-11.49,6.8-20.89,17.21-25.03,2.56-1.02,5.43-1.53,8.4-1.52,35.82,.1,71.65,.06,107.47,.06,30.82,0,61.65,.01,92.47-.01,7.37,0,13.61,2.44,18.81,7.76,2.16,2.21,4,4.53,5.27,7.34,.6,1.32,2.39,7.77,2.39,9.01,0,27.82,0,55.64,0,83.33Z"/><path d="M220.97,206.51c-10.62-.5-20.29-4.25-28-12.28-7.67-7.99-11.68-17.59-11.37-28.76,.3-10.93,4.42-20.32,12.31-27.86,8.02-7.66,17.68-11.56,28.83-11.19,10.92,.36,20.31,4.53,27.79,12.49,7.58,8.07,11.48,17.74,11.02,28.9-.46,10.91-4.68,20.25-12.66,27.72-7.69,7.2-16.95,10.71-27.91,10.99Zm28.72-39.26c-.2-8.04-2.79-14.68-7.97-20.17-5.21-5.52-11.8-8.35-19.36-8.67-7.65-.33-14.26,2.52-19.81,7.57-5.75,5.23-8.67,11.98-8.95,19.74-.27,7.63,2.55,14.24,7.65,19.78,5.28,5.73,12.03,8.62,19.78,8.85,7.82,.23,14.51-2.75,20.11-8.08,5.53-5.26,7.89-12,8.55-19.02Z"/><path d="M44.11,82.39c-.36-.33-.72-.95-1.09-.95-1.93-.04-1.99-1.71-2.82-2.8-.84-1.11-.73-2.21-.58-3.25,.38-2.69,3.11-4.86,6.01-4.99,1-.04,2,0,3,0,59.47,0,118.94,0,178.41,0,.36,.33,.72,.95,1.09,.95,1.93,.04,1.99,1.71,2.82,2.8,.84,1.11,.73,2.21,.58,3.25-.38,2.69-3.11,4.86-6.01,4.99-1,.04-2,0-3,0-59.47,0-118.94,0-178.41,0Z"/><path d="M221.49,243.37c-1.59,1.08-2.92,2.31-4.48,2.97-4.9,2.09-9.06,5.41-13.72,7.89-4.51,2.39-8.77,5.24-13.38,7.5-1.34,.66-2.89,1.05-3.64,.53-1.24-.84-3.32-.7-3.71-2.73-.11-.59-.52-1.12-.98-2.05,0-13.04,0-26.53,0-40.02,0-2.63,.37-4.89,3.35-6.15,3.7-1.55,5.56-1.14,7.66,2.49,.24,.42,.65,.74,1.16,1.31v30.59c1.53-.75,2.83-1.2,3.92-1.96,3.08-2.13,6.36-3.88,9.65-5.67,2.88-1.56,5.6-3.42,8.31-5.27,3.67-2.51,7.28-3.15,11.18-.45,2.82,1.95,5.77,3.71,8.72,5.47,4.4,2.62,8.84,5.15,13.77,8.01,.53-5.45,.2-10.51,.26-15.55,.06-5.15,.01-10.31,.01-15.32,.4-.5,.75-.84,.99-1.26,1.44-2.46,3.95-3.83,6.14-3.32,2.52,.58,4.65,3.03,4.86,5.68,.08,.99,.01,2,.01,3v38.61c-.29,.42-.68,.91-.99,1.45-1.95,3.32-3.88,3.85-7.36,2.45-4.07-1.64-7.71-4.02-11.32-6.43-2.47-1.65-5.25-2.64-7.71-4.43-3.86-2.82-8.29-4.85-12.71-7.35Z"/><path d="M42.93,110.39h111.07c5.13,5.13,4.88,8.29-.93,12-34.97,0-69.94,0-104.92-.01-1.46,0-3.04,.15-4.35-.35-4.01-1.52-5.37-5.42-3.21-8.68,.71-1.07,1.59-2.03,2.34-2.96Z"/><path d="M44.1,162.39c-.36-.33-.71-.94-1.09-.95-1.91-.06-1.99-1.7-2.81-2.8-.83-1.11-.72-2.21-.58-3.25,.38-2.69,3.1-4.87,6.01-4.98,1.5-.06,3-.01,4.49-.01H114.38c.67,1.04,1.52,2.19,2.18,3.44,2.1,3.98-.13,8.15-4.54,8.54-.99,.09-2,.01-3,.01-21.64,0-43.28,0-64.92,0Z"/><path d="M147.49,160.92c-2.45-3.21-2.45-5.93-.32-8.63,2.75-2.53,5.59-2.43,8.2-.63,2.83,3.07,2.73,5.91,.94,8.53-3.07,2.83-5.91,2.73-8.81,.74Z"/></svg>