<?xml version="1.0" encoding="UTF-8"?><svg id="_лой_1" xmlns="http://www.w3.org/2000/svg" viewBox="0 0 69.2 69.2"><defs><style>.cls-111{stroke-miterlimit:2.67;}.cls-111,.cls-12{fill:none;stroke:#000;stroke-linecap:round;stroke-width:2px;}.cls-13{fill:#004a7c;}.cls-12{stroke-linejoin:round;}</style></defs><g><circle class="cls-12" cx="35.1" cy="22.35" r="15.1"/><path class="cls-111" d="M4.1,62.05c0-11.7,13.7-21.2,30.5-21.2s30.5,9.5,30.5,21.2"/></g><path class="cls-13" d="M0,6.74V62.46c0,3.72,3.02,6.74,6.74,6.74H62.46c3.72,0,6.74-3.02,6.74-6.74V6.74c0-3.72-3.02-6.74-6.74-6.74H6.74C3.02,0,0,3.02,0,6.74Zm57.46,57.36H11.94c-3.72,0-6.74-3.02-6.74-6.74V11.84c0-3.72,3.02-6.74,6.74-6.74H57.46c3.72,0,6.74,3.02,6.74,6.74V57.36c0,3.72-3.02,6.74-6.74,6.74Z"/><g><path class="cls-13" d="M28.44,58.14v1.41c.35,1.06,1.41,2.12,2.46,1.76,1.41,0,2.11-1.06,2.11-2.47,0-1.76,0-3.53,.7-5.29,1.76-7.41,5.98-13.41,12.67-17.29,2.81-1.76,6.33-2.82,9.5-3.17h2.81c1.06,0,1.76-.71,2.11-1.41,.35-1.06,.35-1.76-.35-2.47-.35-.71-1.06-.71-1.76-.71-7.74,0-14.78,2.82-20.41,8.11-4.93,4.59-8.09,9.88-9.5,16.58,0,1.41,0,3.17-.35,4.94Z"/><path class="cls-13" d="M37.59,58.49c0,.71,0,1.06,.35,1.41,.35,1.06,1.41,1.76,2.81,1.76,1.06-.35,2.11-1.06,2.11-2.47,0-2.82,.7-5.29,1.76-7.76,2.46-4.94,6.68-7.76,11.96-8.82,.7,0,1.76,0,2.81-.35,1.76,0,2.81-2.12,2.11-3.53-.35-1.06-1.41-1.41-2.11-1.41-4.57,0-8.44,1.41-11.96,3.88-4.57,3.17-7.74,7.76-8.8,13.41-.7,1.41-.7,2.47-1.06,3.88Z"/><path class="cls-13" d="M46.74,58.85c0,1.41,.7,2.47,2.11,2.82,1.41,0,2.46-.71,2.81-2.12,0-.71,0-1.76,.35-2.47,.7-3.17,3.52-5.29,7.04-5.29,1.06,0,2.11-.35,2.46-1.41,.7-1.76-.35-3.53-2.46-3.53-2.46,0-4.93,.71-7.04,2.12-2.81,2.12-4.57,4.94-5.28,8.47,0,0,0,.71,0,1.41Z"/><path class="cls-13" d="M58.7,56.02c-1.41,0-2.46,1.06-2.46,2.47s1.06,2.47,2.46,2.47,2.46-1.06,2.46-2.47-1.06-2.47-2.46-2.47Z"/></g></svg>