<?xml version="1.0" encoding="UTF-8"?><svg id="_лой_1" xmlns="http://www.w3.org/2000/svg" viewBox="0 0 69.3 69.3"><defs><style>.cls-101{fill:#7f7f7f;}</style></defs><g><path class="cls-101" d="M31.8,39.4h0c-2.1-.5-4.1-1.3-5.9-2.5-.5-.3-.6-.9-.2-1.4,.3-.5,.9-.6,1.4-.2,1.5,1.1,3.3,1.8,5.1,2.2,.5,.1,.9,.6,.8,1.2-.1,.4-.6,.8-1.2,.7Zm6,0c-.4-.1-.7-.4-.8-.8-.1-.5,.3-1.1,.8-1.2,1.8-.4,3.6-1.1,5.1-2.1,.5-.3,1.1-.2,1.4,.3s.2,1.1-.3,1.4c-1.8,1.2-3.8,2-5.9,2.4-.1,.1-.2,.1-.3,0Zm-15.5-6.7c-.3,0-.5-.2-.7-.4-1.2-1.8-1.9-3.8-2.3-5.9-.1-.5,.3-1.1,.8-1.2s1.1,.3,1.2,.8c.3,1.9,1,3.6,2,5.2,.3,.5,.2,1.1-.3,1.4-.2,.1-.5,.1-.7,.1Zm25.2,.3c-.1,0-.3-.1-.4-.1-.5-.3-.6-.9-.3-1.4,1-1.6,1.7-3.3,2.1-5.2,.1-.5,.6-.9,1.2-.8,.5,.1,.9,.6,.8,1.2-.4,2.1-1.2,4.1-2.4,5.9-.2,.3-.6,.4-1,.4Zm-27.2-11.8h0c-.6-.1-.9-.7-.8-1.2,.5-2.1,1.4-4,2.7-5.8,.3-.4,1-.5,1.4-.2s.5,1,.2,1.4c-1.1,1.5-1.9,3.2-2.3,5.1-.1,.5-.7,.8-1.2,.7Zm29.6,1.6c-.4-.1-.8-.4-.8-.9-.2-1.9-.8-3.6-1.8-5.3-.3-.5-.1-1.1,.4-1.4,.5-.3,1.1-.1,1.4,.4,1.1,1.9,1.7,3.9,2,6,.1,.5-.3,1-.9,1.1-.1,.1-.2,.1-.3,.1ZM27.2,11.7c-.3-.1-.5-.2-.7-.5-.3-.5-.1-1.1,.3-1.4,1.8-1.1,3.9-1.8,6-2.1,.5-.1,1.1,.3,1.1,.8,.1,.5-.3,1.1-.8,1.1-1.9,.3-3.6,.9-5.2,1.9-.2,.3-.5,.3-.7,.2Zm16.9,1c-.1,0-.3-.1-.4-.2-1.5-1.1-3.2-2-5-2.4-.5-.1-.9-.7-.7-1.2,.1-.5,.7-.8,1.2-.7,2.1,.5,4,1.5,5.7,2.8,.4,.3,.5,1,.2,1.4-.2,.2-.6,.4-1,.3Z"/><path class="cls-101" d="M4.1,64.4c-.6,0-1-.4-1-1,0-2.1,.4-4.2,1.3-6.2,.2-.5,.8-.7,1.3-.5s.8,.8,.5,1.3c-.7,1.8-1.1,3.6-1.1,5.5,0,.5-.4,.9-1,.9Zm60.6-3.9c-.4,0-.8-.3-1-.7-.5-1.8-1.3-3.5-2.4-5.1-.3-.5-.2-1.1,.2-1.4,.5-.3,1.1-.2,1.4,.2,1.3,1.8,2.2,3.7,2.7,5.7,.1,.5-.2,1.1-.7,1.2,0,.1-.1,.1-.2,.1Zm-56.2-7c-.2,0-.5-.1-.7-.2-.4-.4-.5-1-.1-1.4,1.3-1.5,2.9-2.9,4.6-4.1,.5-.3,1.1-.2,1.4,.2,.3,.5,.2,1.1-.2,1.4-1.6,1.2-3.1,2.4-4.3,3.8-.2,.2-.4,.3-.7,.3Zm49.6-2.7c-.2,0-.4-.1-.6-.2-1.4-1.2-3.1-2.2-4.8-3.2-.5-.3-.7-.9-.4-1.3,.3-.5,.9-.7,1.3-.4,1.9,1,3.6,2.1,5.2,3.4,.4,.4,.5,1,.1,1.4-.3,.2-.6,.3-.8,.3Zm-39.9-4.2c-.4,0-.7-.2-.9-.6-.2-.5,0-1.1,.5-1.3,1.8-.8,3.8-1.5,5.8-2,.5-.1,1.1,.2,1.2,.7s-.2,1.1-.7,1.2c-1.9,.5-3.8,1.2-5.5,1.9-.2,.1-.3,.1-.4,.1Zm29.3-1.4h-.3c-1.8-.6-3.7-1-5.7-1.4-.5-.1-.9-.6-.8-1.1s.6-.9,1.1-.8c2.1,.3,4.1,.8,6,1.4,.5,.2,.8,.7,.6,1.3-.1,.3-.5,.6-.9,.6Zm-17.8-1.7c-.5,0-.9-.4-1-.9s.3-1,.9-1.1c2-.2,4.1-.3,6.1-.3,.6,0,1,.5,1,1s-.5,1-1,1h0c-2,0-3.9,0-5.9,.3t-.1,0Z"/></g><path class="cls-101" d="M62.44,69.3H6.86c-3.79,0-6.86-3.07-6.86-6.86V6.86C0,3.07,3.07,0,6.86,0H62.44c3.79,0,6.86,3.07,6.86,6.86V62.44c0,3.79-3.07,6.86-6.86,6.86ZM57.34,5.1H12.06c-3.79,0-6.86,3.07-6.86,6.86V57.24c0,3.79,3.07,6.86,6.86,6.86H57.34c3.79,0,6.86-3.07,6.86-6.86V11.96c0-3.79-3.07-6.86-6.86-6.86Z"/></svg>