<?xml version="1.0" encoding="utf-8"?>
<!-- Generator: Adobe Illustrator 26.3.1, SVG Export Plug-In . SVG Version: 6.00 Build 0)  -->
<svg version="1.1" id="Слой_1" xmlns="http://www.w3.org/2000/svg" xmlns:xlink="http://www.w3.org/1999/xlink" x="0px" y="0px"
	 viewBox="0 0 36.67 46.59" style="enable-background:new 0 0 36.67 46.59;" xml:space="preserve">
<style type="text/css">
	.st0{fill:#020202;}
	.st1{fill:#060606;}
	.st2{fill:#040404;}
	.st3{fill:#0D0D0D;}
	.st4{fill:#010101;}
	.st5{fill:#030303;}
	.st6{fill:#050505;}
	.st7{fill:none;stroke:#000000;stroke-width:1.7;stroke-linecap:round;stroke-linejoin:round;stroke-miterlimit:10;}
	.st8{fill:none;stroke:#000000;stroke-width:1.7;stroke-miterlimit:10;}
	.st9{fill:none;stroke:#000000;stroke-width:1.7;stroke-linecap:round;stroke-miterlimit:10;}
</style>
<g>
	<path class="st7" d="M35.77,8.89v34.34c0,1.39-1.13,2.51-2.51,2.51H3.37c-1.39,0-2.51-1.13-2.51-2.51V3.36
		c0-1.39,1.13-2.51,2.51-2.51h24.41c0.25,0,0.49,0.1,0.67,0.28l7.05,7.1C35.67,8.4,35.77,8.64,35.77,8.89z"/>
	<path class="st8" d="M34.98,8.98h-5.09c-1.39,0-2.51-1.13-2.51-2.51V1.32"/>
	<circle class="st8" cx="18.34" cy="22.82" r="11.33"/>
	<line class="st8" x1="25.5" y1="14.04" x2="11.24" y2="31.66"/>
	<line class="st9" x1="7.01" y1="38.29" x2="29.73" y2="38.29"/>
</g>
</svg>
