<?xml version="1.0" encoding="UTF-8"?><svg id="_лой_1" xmlns="http://www.w3.org/2000/svg" viewBox="0 0 69.2 69.2"><defs><style>.cls-11{stroke-miterlimit:2.67;}.cls-11,.cls-21{fill:none;stroke:#000;stroke-linecap:round;stroke-width:2px;}.cls-31{fill:#d11c1d;}.cls-21{stroke-linejoin:round;}</style></defs><g><circle class="cls-21" cx="35.1" cy="22.3" r="15.1"/><path class="cls-11" d="M4.1,62c0-11.7,13.7-21.2,30.5-21.2s30.5,9.5,30.5,21.2"/></g><path class="cls-31" d="M0,6.62V62.58c0,3.65,2.96,6.62,6.62,6.62H62.58c3.65,0,6.62-2.96,6.62-6.62V6.62c0-3.65-2.96-6.62-6.62-6.62H6.62C2.96,0,0,2.96,0,6.62Zm57.48,57.48H11.72c-3.65,0-6.62-2.96-6.62-6.62V11.72c0-3.65,2.96-6.62,6.62-6.62H57.48c3.65,0,6.62,2.96,6.62,6.62V57.48c0,3.65-2.96,6.62-6.62,6.62Z"/><polygon class="cls-31" points="52.5 47 65.1 59.6 59.4 65.2 46.9 52.6 34.3 65.1 28.7 59.5 41.3 47 28.8 34.4 34.4 28.8 46.9 41.4 59.5 28.9 65.1 34.5 52.5 47"/></svg>