<?xml version="1.0" encoding="UTF-8"?><svg id="_лой_1" xmlns="http://www.w3.org/2000/svg" viewBox="0 0 269.63 274.37"><defs><style>.cls-1{fill:#09080b;}.cls-2{fill:#09090b;}.cls-3{fill:#100f12;}.cls-4{fill:#0f0e11;}.cls-5{fill:#040405;}.cls-6{fill:#0c0b0d;}.cls-7{fill:#070709;}</style></defs><path class="cls-1" d="M42.8,174.14c0-38.17,0-75.96,0-113.75,0-3.99,1.07-7.64,3.23-10.96,2.13-3.28,4.74-6.07,8.46-7.59,1.95-.79,3.94-1.45,6.09-1.44,4.18,.02,8.36,0,12.58,0,.41-1.68,.57-3.41,1.27-4.88,1.17-2.46,2.72-4.7,5.26-6.08,2.36-1.28,4.77-2.03,7.52-1.91,3.83,.16,7.66,.04,11.68,.04,.03-.84,.07-1.7,.08-2.56,.01-.8-.02-1.6,0-2.41,.08-2.55,.95-4.8,2.76-6.6,1.33-1.32,2.57-2.66,4.41-3.52,1.82-.86,3.69-1.41,5.54-1.43,12.92-.12,25.85-.13,38.77,0,2.28,.02,4.53,.81,6.61,2.07,2.62,1.59,4.14,3.98,5.37,6.59,.52,1.1,.58,2.46,.69,3.71,.11,1.32,.02,2.65,.02,4.14,4.26,0,8.42-.02,12.59,0,2.88,.02,5.45,.79,7.67,2.81,2.38,2.17,3.75,3.85,4.64,6.87,.29,.97,.25,2.03,.38,3.15,4.38,0,8.74-.05,13.09,.02,3.11,.05,5.84,1.24,8.36,3.07,1.61,1.17,2.97,2.49,4.15,4.12,1.73,2.41,2.89,5.01,3.73,7.83,.41,1.37,.26,2.74,.52,4.06,1.02,5.08,.24,10.2,.5,15.29,.01,.25,.04,.51,.07,.76,2.09,.23,4.17,.31,6.18,.72,2.02,.41,4.04,.98,5.95,1.76,4.78,1.96,9.42,4.18,13.49,7.5,3.06,2.5,5.75,5.28,8.31,8.27,2.4,2.79,4.18,5.89,5.8,9.12,1.64,3.27,2.68,6.74,3.56,10.29,1.21,4.89,1.26,9.86,.95,14.8-.14,2.31-.45,4.7-1.17,6.97-.7,2.2-1.36,4.41-2.21,6.57-1.32,3.36-3.05,6.45-5.1,9.38-.92,1.33-1.85,2.67-2.93,3.86-1.56,1.71-3.21,3.34-4.9,4.92-2.36,2.21-4.97,4.11-7.8,5.69-1.02,.57-1.98,1.23-3.03,1.73-3.07,1.47-6.32,2.42-9.62,3.26-2.24,.57-4.44,1.17-7.01,1.01v2.36c0,21.75,.08,43.49-.05,65.24-.03,5.75-2.12,10.87-6.31,15.02-2.14,2.12-4.36,4.04-7.41,4.73-1.64,.37-3.24,.94-4.96,.93-9.09-.02-18.18,0-27.27,0-33.78,0-67.56,.02-101.33-.04-2.54,0-4.87,.56-7.21,1.35-1.82,.61-3.69,1.04-5.56,1.45-1.64,.36-3.31,.14-4.86,.53-1.47,.37-2.89,.53-4.34,.42-1.44-.1-2.83-.58-4.33-.55-1.35,.03-2.77-.11-4.04-.55-1.34-.46-2.74-.67-4.06-1.17-1.23-.47-2.47-.93-3.68-1.45-1.29-.55-2.59-1.1-3.81-1.77-3.42-1.89-6.68-4.02-9.5-6.78-2.86-2.79-5.51-5.72-7.57-9.17-1.32-2.21-2.32-4.56-3.45-6.85-1.23-2.51-1.42-5.28-2.58-7.76,.33-1.68-.6-3.2-.56-4.85,.06-2.14,.03-4.28,0-6.42-.05-4.38,1.12-8.49,2.43-12.63,1.4-4.43,3.95-8.2,6.29-12.11,2.49-2.15,4.06-5.14,6.9-7.06,1.74-1.17,3.27-2.79,5.12-3.85,3.87-2.22,7.77-4.44,12.26-5.27,1.12-.21,2.21-.66,3.38-1.02Zm47.07,21.86c.47,.8,.77,1.31,1.07,1.82,1.79,3.02,2.75,6.35,3.77,9.67,.58,1.88,.66,3.82,1.01,5.72,.3,1.59-.35,3.3,.54,4.87,.15,.27,.17,.81,0,1.04-.83,1.11-.42,2.36-.5,3.54-.05,.8,.19,1.67-.05,2.39-.83,2.53-1.14,5.19-2.08,7.69-1.19,3.19-2.63,6.24-4.41,9.14-1.82,2.94-3.87,5.69-6.42,8.05-.25,.23-.32,.66-.57,1.2h54.81c20.59,0,41.18,0,61.77,0,2.08,0,3.92-.6,5.79-1.52,1.27-.63,1.96-1.72,2.95-2.54,1.57-1.3,2.16-3.23,2.58-5.06,.48-2.08,.57-4.29,.58-6.45,.06-9.18,.02-18.36,.02-27.54v-35.78l-.7-.7c-6.41-.37-12.18-2.42-17.7-5.38-5.63-3.02-10.6-6.8-14.72-11.87H105.63c-2.41-1.48-2.58-1.71-3.47-4.73l1.13-2.34,2.06-1.56h66.47c-.43-1.13-.81-2.11-1.2-3.09-.43-1.07-.94-2.11-1.28-3.21-.32-1.03-.57-2.15-.97-3.08-.44-1.02-.29-2.11-.85-3.14-.52-.95-.09-2.29-.56-3.5-.4-1-.08-2.29-.08-3.44v-3.48c0-1.25-.07-2.5,.02-3.74,.07-1.05,.32-2.08,.5-3.17h-62.11l-1.99-1.38-1.05-2.75c.39-2.24,1.62-3.64,3.67-4.49h63.63c2.3-5.59,5.12-10.91,9.3-15.39,4.19-4.5,8.81-8.39,14.36-11.18,5.39-2.72,11.12-4.22,16.9-5.04-.17-1.06-.4-1.88-.41-2.71-.04-3.74-.07-7.49,0-11.23,.06-3.25-.88-6.06-2.62-8.83-1.53-2.43-3.84-3.51-6.23-3.75-4.12-.41-8.32-.11-12.55-.11,0,2.94,.02,5.7-.01,8.45,0,.58-.16,1.17-.29,1.75-.49,2.24-1.83,3.91-3.36,5.58-2.7,2.95-6,4.03-9.86,4.03-29.06-.02-58.12,0-87.18-.01-1.46,0-2.87-.09-4.34-.46-3.52-.89-7.87-4.09-8.81-7.36-.6-2.09-1.37-4.2-1.17-6.49,.16-1.75,.03-3.53,.03-5.46-3.47,0-6.84-.05-10.2,.02-1.44,.03-2.92,.19-4.31,.56-1.01,.27-2.01,.87-2.82,1.55-3.06,2.54-4.58,5.89-4.58,9.85-.02,36.81-.01,73.63-.01,110.44v2.18c2.11,.07,4.07,.11,6.04,.46,1.99,.35,4.01,.71,5.93,1.26,.86,.25,1.57,.4,2.28,.36,.51-1.65,.95-3.16,1.46-4.65,.16-.46,.41-.94,.76-1.28,1.06-1.06,1.86-2.31,3.12-3.26,2.06-1.55,4.29-2.33,6.75-2.46,2.76-.14,5.52-.04,8.29-.03,.52,0,1.1-.08,1.56,.1,2.6,1.01,5.22,2.03,7.03,4.33,1.65,2.1,2.9,4.32,2.81,7.14-.1,3.03-.02,6.06-.02,9.09,0,.53,.09,1.1-.07,1.58-1.21,3.61-3.42,6.42-6.81,8.25-.2,.11-.43,.18-.61,.26v1.31Zm-38.5,58.33c1.91-.15,4.05,.08,6.24-.46,2.92-.71,5.73-1.53,8.52-2.69,5.34-2.22,9.31-6.08,13.17-10.13,.8-.84,1.29-1.97,2.02-2.89,1.62-2.06,2.41-4.51,3.51-6.83,1.43-3.02,2.03-6.25,2.26-9.46,.22-3.19,.37-6.43-.35-9.68-.52-2.37-1.14-4.71-1.94-6.97-.77-2.16-1.83-4.25-3.01-6.23-1-1.67-2.29-3.19-3.56-4.67-2.61-3.03-5.85-5.32-9.25-7.36-2.41-1.44-5.09-2.32-7.73-3.28-2.76-1.01-5.65-.9-8.45-1.52-2.6-.58-5.17,.64-7.79,.5-1.11,.96-2.58,.44-3.87,.98-1.43,.6-2.88,1.24-4.38,1.68-2.29,.68-4.13,2.13-6.09,3.35-2.33,1.45-4.1,3.55-6.03,5.46-3.35,3.31-5.68,7.29-7.35,11.66-.68,1.77-1.23,3.62-1.66,5.45-.47,1.99-.57,4.1-.6,6.16-.03,1.46-.31,2.94,.29,4.41,.58,1.42,.16,3,.66,4.53,.76,2.36,1.27,4.78,2.38,7.05,2.58,5.29,5.86,9.99,10.76,13.41,3.21,2.25,4.56,4.03,11.93,6.05,.87,.24,1.68,.68,2.55,.92,.81,.23,1.65-.13,2.55,.32,.79,.39,1.88,.2,2.84,.23,.71,.03,1.43,0,2.38,0Zm194.02-105.73c.93-1.08,1.82-1.75,2.21-2.64,1.2-2.72,2.9-5.16,3.97-7.98,1.37-3.6,2.36-7.17,2.5-11,.02-.58,.07-1.12,.33-1.73,.35-.81,.36-1.97,.03-2.79-.24-.59-.34-1.13-.37-1.72-.07-1.54-.04-3.05-.46-4.61-.61-2.22-2.02-7.34-3.04-9.45-1.63-3.34-3.69-6.42-6.08-9.23-2.87-3.37-6.38-6.04-10.27-8.11-2.83-1.51-5.62-3.14-8.91-3.69-2.57-.43-5.04-1.49-7.7-1.37-2.96,.13-5.9-.09-8.89,.4-3.18,.52-6.2,1.42-9.14,2.54-4.68,1.78-8.7,4.76-12.41,8.09-.95,.85-1.59,2.04-2.49,2.96-1.85,1.91-3.15,4.16-4.46,6.44-1.29,2.25-2.21,4.62-3.05,7.03-.86,2.44-1.57,5.02-1.64,7.58-.13,4.41-.4,8.83,.9,13.22,.66,2.23,1.14,4.47,2.19,6.6,1.14,2.31,2.34,4.56,3.62,6.79,.63,1.1,1.4,1.88,2.38,2.69,3.79-6.04,8.94-10.19,15.53-12.68-9.84-9.28-10.03-22.6-2.22-31.52,7.97-9.1,19.88-10.42,30.19-3.54,1.6,1.07,2.84,2.7,4.18,4.12,1.33,1.42,2.3,3.11,3.04,4.89,.7,1.68,1.29,3.39,1.69,5.19,.44,1.99,.71,4,.39,5.93-.29,1.79-.47,3.71-1.22,5.35-.79,1.71-1.65,3.43-2.68,5.06-1.03,1.63-2.83,2.57-3.64,4.45,3.18,1.35,6.05,3.02,8.73,5.04,2.78,2.1,4.71,4.94,6.81,7.67ZM82.38,39.04v17.89c.58,1.61,1.65,2.21,2.92,2.82,.98,.48,1.86,.41,2.77,.41,28.43,.02,56.87,.01,85.3,.03,2.65,0,5-.48,6.36-3.19,0-5.34-.02-10.77,.01-16.21,0-1.24-.07-2.41-1.06-3.32l-2.65-1.36h-2.39c-27.45,0-54.9,0-82.36,.01-2.34,0-4.72-.36-7.35,.78l-1.55,2.13Zm108.83,115.93c.94,.79,1.61,1.5,2.41,2,2.66,1.68,5.49,3,8.49,3.99,3.14,1.04,6.25,2.07,9.62,1.93,.66-.03,1.3-.1,1.98,.43,.44,.35,1.61,.38,2.03,.03,1-.82,2.04-.47,3.03-.44,2.68,.07,5.13-.87,7.67-1.5,3.19-.78,5.94-2.44,8.8-3.9,1.27-.65,2.54-1.33,3.51-2.78-.41-.67-.84-1.37-1.26-2.07-1.97-3.34-4.83-5.68-8.22-7.44-1.9-.98-6.17-2.14-7.92-2.14-4.36,0-8.72,.05-13.08-.03-1.58-.03-3.01,.47-4.47,.85-4.6,1.2-7.88,4.35-10.92,7.75-.74,.82-1.04,2.04-1.66,3.31Zm23.68-49.26c-.93,0-2.28-.32-3.39,.06-3.21,1.09-6.23,2.62-7.98,5.77-1.3,2.35-2.57,4.76-2.39,7.55,.19,2.79,.91,5.35,2.56,7.77,1.28,1.87,2.89,3.28,4.67,4.35,1.74,1.04,3.87,1.53,5.96,1.7,2.99,.25,5.6-.96,8.1-2.37,1.11-.63,2.18-1.47,2.97-2.46,1.35-1.68,2.52-3.63,2.9-5.71,.39-2.16,.29-4.46,.04-6.66-.31-2.73-3.86-6.85-6.57-8.49-2.06-1.25-4.2-1.79-6.88-1.51ZM154.54,27.51c.15-2.14-.1-3.92-.97-5.7-.59-1.2-1.51-1.47-2.54-1.72-.5-.13-1.06-.02-1.6-.02h-38.68c-3.96,1.48-3.29,4.53-3.14,7.44h46.93ZM74.35,176.21v3.55c2.94,2.32,5.9,4.65,9.03,7.12h3.06l2.35-2.35c0-2.54-.03-5.11,.01-7.68,.02-1.17-.33-2.1-1.05-3.05-.73-.94-1.94-.58-2.68-1.3-3.22,.26-6.62-.85-9.52,1.32-.37,.74-.74,1.47-1.19,2.39Z"/><path class="cls-7" d="M190.74,230.8H105.63c-.91-.69-1.93-1.46-2.79-2.11l-.44-2.78c.16-.35,.64-1.06,.8-1.84,.3-1.41,1.49-1.46,2.47-1.8,.48-.17,1.06-.03,1.59-.03,27.26,0,54.52,0,81.78,0,.78,0,1.64-.09,2.32,.19,2.36,.97,3.71,4.22,1.61,6.56-.62,.69-1.45,1.18-2.24,1.8Z"/><path class="cls-5" d="M193.24,183.73l2.31,2.21,.67,2.12-.76,2.16-2.46,2.07h-44.48c-12.29,0-24.58-.02-36.87,.02-2.37,0-3.88-1.05-4.81-3.12-.17-.37-.45-.84-.36-1.17,.45-1.57,.72-3.3,2.58-3.96,.39-.14,.79-.28,1.2-.32,.53-.06,1.07-.01,1.6-.01h81.39Z"/><path class="cls-2" d="M81.79,115.81c-1.42,0-2.85,0-4.27,0-2.67,0-4.96-.99-6.8-2.87-1.02-1.04-2.22-1.89-2.9-3.32-.78-1.63-2.01-4.44-2.02-5.84-.02-2.49-.21-5,.05-7.46,.29-2.85,1.23-5.52,3.3-7.7,1.86-1.96,4.02-3.25,6.62-4.02,.68-.2,1.32-.32,1.98-.33,2.22-.04,4.45,.06,6.67-.03,3.29-.14,6.11,1.1,8.63,2.99,2.16,1.62,2.97,4.24,4.29,6.47,.04,.07,0,.18,0,.26-.15,2.53,.92,4.97,.53,7.51-.15,1-.41,1.98-.51,2.98-.1,.93-.16,1.8-.49,2.73-1.3,3.63-3.57,6.13-7.26,7.54-1.31,1.36-3.01,1.05-4.63,1.07-1.07,.01-2.13,0-3.2,0Zm-6.87-11.11c.82,.82,1.63,1.63,2.55,2.55,2.3,0,4.78,.02,7.27,0,2.25-.03,4.02-1.78,4.04-4.02,.03-2.49,0-4.98,0-7.47-1.28-2.15-1.96-2.88-5.41-2.94-1.86-.03-3.73,0-5.73,0l-2.65,2.22c-.96,3.43-.94,6.58-.08,9.67Z"/><path class="cls-1" d="M81.99,122.76c1.16,0,2.31-.04,3.47,0,4.1,.15,7.31,2.04,9.73,5.24,1.44,1.91,2.1,4.08,2.28,6.56,.12,1.69,.58,3.43,.37,5.12-.27,2.08-.32,4.2-1,6.24-.79,2.35-2.21,4.25-4.14,5.68-1.45,1.06-3.06,1.93-4.86,2.43-.59,.16-1.16,.27-1.74,.27-2.58,.03-5.16,.02-7.74,0-3.19-.02-5.88-1.2-8.21-3.38-1.4-1.31-2.54-2.78-3.25-4.53-.57-1.38-1.05-2.83-1.08-4.35-.04-2.31-.18-4.64,.03-6.93,.28-3.05,1.21-5.91,3.5-8.14,.93-.9,1.9-1.73,2.95-2.5,1.59-1.17,3.37-1.47,5.18-1.68,1.49-.17,3.02-.04,4.53-.04Zm-4.27,23h8.14c.11-.12,.21-.31,.36-.36,1.95-.75,2.61-2.25,2.58-4.24-.05-2.31-.01-4.62-.01-6.63-1.01-2.56-2.75-3.4-5.18-3.24-1.94,.13-3.9,.03-5.52,.03-2.94,1.22-3.83,3.35-3.74,6.07,.06,2.06-.26,4.16,.92,6.42,.65,.52,1.59,1.26,2.46,1.95Z"/><path class="cls-6" d="M47.56,210.98h1.01c.73-.77,1.55-1.71,2.45-2.56,2.68-2.54,5.39-5.04,8.08-7.56,.07-.06,.12-.14,.19-.19,3.93-2.73,10.7-2.88,14.63,.06,3.24,2.42,3.06,2.58,4.95,5.89,.65,1.14,.86,2.19,.83,3.4-.02,.89-.03,1.78,0,2.67,.08,2.76-1.11,4.97-2.62,7.22-.96,1.44-2.35,2.17-3.46,3.3-1.87,1.91-3.74,3.82-5.67,5.66-2.92,2.8-5.75,5.72-8.88,8.26-2.44,1.98-5.2,3.55-8.54,3.9-1.15,.12-2.37,.62-3.52,.41-4.24-.79-8.21-1.97-11.49-5.22-2.8-2.77-5.79-5.39-8.58-8.2-3-3.02-4.61-6.77-3.83-10.9,.79-4.18,2.79-7.76,6.96-9.96,2.96-1.56,5.95-1.72,8.99-1.42,1.54,.15,3.18,.89,4.49,1.99,1.26,1.05,2.55,2.07,4,3.24Zm-15.46,9.92c2.83,2.83,5.62,5.59,8.37,8.38,3.07,3.11,6.67,3.91,10.77,2.57,.7-.23,1.43-.57,1.95-1.06,2.36-2.23,4.62-4.55,7.14-6.63,3.26-2.69,5.69-6.27,9.24-8.67,.25-.17,.34-.56,.5-.85,.32-.58,.64-1.16,1.04-1.88,.48-2.14-.82-3.61-2.19-4.78-.94-.29-1.66-.68-2.37-.67-.71,0-1.42,.41-2.29,.69-3.63,3.45-7.4,7.04-11.17,10.63-.39,.37-.74,.78-1.14,1.13-.77,.67-1.57,1.3-2.27,1.88h-4.01c-1.77-1.77-3.45-3.48-5.17-5.16-1.16-1.14-2.62-1.81-4.15-2.22-.95-.25-1.64,.73-2.5,1-1.31,.41-1.55,1.49-1.72,2.53-.16,1.03-.04,2.12-.04,3.11Z"/><path class="cls-3" d="M156.06,45.47c2.85-1.55,5.89-.42,8.7-.85q2.08,1.2,3.12,2.93c.29,1.59-.03,3.04-1,4.34l-2.6,1.34c-1.56,0-3.34,.02-5.11,0-1.75-.02-4.2-1.88-4.56-3.54-.12-.55,.03-1.21,.23-1.76,.28-.77,.73-1.48,1.23-2.45Z"/><path class="cls-4" d="M104.73,51.87c-2.84,2.09-5.87,1.13-8.8,1.38l-2.62-2.09-.83-2.56c.33-.68,.63-1.56,1.15-2.28,.46-.64,1.17-1.11,1.76-1.65,2.09,0,4.13-.02,6.17,0,3.48,.03,5.32,3.04,3.77,6.18-.18,.37-.42,.7-.6,1.02Z"/></svg>