<?xml version="1.0" encoding="UTF-8"?><svg id="_лой_1" xmlns="http://www.w3.org/2000/svg" viewBox="0 0 318.81 392"><defs><style>.cls-1{fill:#4e53a0;}.cls-2{fill:#111012;}.cls-3{fill:#100f12;}</style></defs><path class="cls-3" d="M284.56,192.44c0,71.56-54.33,128.89-125.15,128.89-71.85,0-123.53-61.42-123.13-125.33,0-68,53.06-124,123.16-124,64.17,.2,125.12,52,125.12,120.44Zm-207.97,74.63c17.43-32.25,43.61-51.71,80.63-52.11,38.83-.42,65.94,19.75,83.67,53.47,33.53-35.3,40.6-99.3,.35-144.87-40.38-45.73-110.94-49.4-155.36-8.48-46.13,42.49-45.98,110.6-9.28,152Zm79.18-45.74"/><ellipse class="cls-2" cx="159.41" cy="155.65" rx="43.96" ry="43.96"/><path class="cls-3" d="M29.99,346.22h234.25c1.2,0,1.8,1.45,.95,2.3l-28.63,28.62c-.53,.53-.53,1.38,0,1.9l6.69,6.69c.53,.53,1.38,.53,1.9,0l44.63-44.63c.53-.53,.53-1.38,0-1.9l-7.64-7.64-36.99-36.99c-.53-.53-1.38-.53-1.9,0l-6.69,6.69c-.53,.53-.53,1.38,0,1.9l28.62,28.61c.85,.85,.25,2.3-.95,2.3H29.99c-.74,0-1.35,.6-1.35,1.35v9.46c0,.74,.6,1.35,1.35,1.35Z"/><path class="cls-3" d="M288.83,57.26H54.57c-1.2,0-1.8,1.45-.95,2.3l28.63,28.62c.53,.53,.53,1.38,0,1.9l-6.69,6.69c-.53,.53-1.38,.53-1.9,0L29.04,52.14c-.53-.53-.53-1.38,0-1.9l7.64-7.64L73.66,5.61c.53-.53,1.38-.53,1.9,0l6.69,6.69c.53,.53,.53,1.38,0,1.9l-28.62,28.61c-.85,.85-.25,2.3,.95,2.3h234.24c.74,0,1.35,.6,1.35,1.35v9.46c0,.74-.6,1.35-1.35,1.35Z"/><polygon class="cls-1" points="36.27 42.52 27.68 51.11 36.26 42.52 36.27 42.52"/></svg>