<?xml version="1.0" encoding="UTF-8"?><svg id="_лой_1" xmlns="http://www.w3.org/2000/svg" viewBox="0 0 69.3 69.3"><defs><style>.cls-10{stroke-miterlimit:2.67;}.cls-10,.cls-20{fill:none;stroke:#000;stroke-linecap:round;stroke-width:2px;}.cls-30{fill:#00a48d;}.cls-20{stroke-linejoin:round;}</style></defs><g><circle class="cls-20" cx="35.1" cy="22.6" r="15.1"/><path class="cls-10" d="M4.1,62.4c0-11.7,13.7-21.2,30.5-21.2s30.5,9.5,30.5,21.2"/></g><path class="cls-30" d="M63.13,69.3H6.17c-3.41,0-6.17-2.76-6.17-6.17V6.17C0,2.76,2.76,0,6.17,0H63.13C66.54,0,69.3,2.76,69.3,6.17V63.13c0,3.41-2.76,6.17-6.17,6.17ZM57.93,5.1H11.27c-3.41,0-6.17,2.76-6.17,6.17V57.93c0,3.41,2.76,6.17,6.17,6.17H57.93c3.41,0,6.17-2.76,6.17-6.17V11.27c0-3.41-2.76-6.17-6.17-6.17Z"/><polygon class="cls-30" points="64.1 34.4 39.5 64.1 39.4 64.1 39.4 64.1 25 52.2 30.5 45.5 38.3 51.9 57.4 28.8 64.1 34.4"/></svg>